<svg id="about" xmlns="http://www.w3.org/2000/svg" viewBox="0 0 379.99 379.95"><path d="M379.49,176c-.39-1.72-.76-3.37-1.24-5-4.7-16-14.91-27.28-30.33-33.38-.7-.28-1.39-.57-2.12-.88l-1.06-.44-.45-3.43C358,122.3,366.05,107.42,367,91c.08-1.29.12-2.59.12-3.89A55.37,55.37,0,0,0,311.48,32a54.78,54.78,0,0,0-40,17A56,56,0,0,0,256.2,91.83c1.2,16,9.15,30.39,22.39,40.61l-.28,3.35-17.53,9.34-2.9-1.36c-4-19.52-15.76-32.85-34.86-39.52l-.62-3.43,1.23-1c.74-.61,1.39-1.14,2-1.69C243.77,81.74,249.62,62,243.14,40S221.39,4.63,197.78.61A10.71,10.71,0,0,1,196,.11L195.69,0H184.32c-2.22.72-4.5,1.34-6.7,2-5.07,1.36-9.85,2.68-14.12,5a54.6,54.6,0,0,0-28.82,43.31A56,56,0,0,0,155.21,98.8c.45.37.88.75,1.45,1.24l1,.88-.66,3.41c-9.65,3.28-17.22,8.17-23.13,14.94a51,51,0,0,0-11.63,24.58l-2.91,1.4-17.64-9.45-.3-3.33c16-12.73,23.55-29,22.44-48.46-.88-15.37-7.37-28.39-19.3-38.7A55,55,0,0,0,68.53,32c-1.74,0-3.48.06-5.21.21A55.29,55.29,0,0,0,13,92.14c1.25,16,9.27,30.43,22.6,40.73l-.45,3.43-.83.35c-.57.24-1.11.47-1.65.68C14.38,144.64,3.86,157.47.56,176.64A6.36,6.36,0,0,1,0,178.28V241.4c2.34,7.39,5.78,12,11.13,14.8,1.44.74,2.07,2.53,2.44,4C17.31,275,28.69,283.88,44,284H80.67l1.91,1.42c1.15,3.6,2.15,7.14,3.15,10.6,2.14,7.5,4.16,14.58,7.27,21.19C109.86,353,138.59,374,178.41,379.28a18.74,18.74,0,0,1,2.22.5l.62.17h17.56c1.89-.38,3.82-.69,5.68-1a103.46,103.46,0,0,0,12.21-2.45c43.86-13,70.35-42.37,78.74-87.31.14-.75.31-1.5.5-2.33l.28-1.26,1.95-1.57h19.68c5.93,0,10.74-.07,15.15-.07h.56a45.21,45.21,0,0,0,10.82-1c11.07-2.93,18.29-10,21.47-21.06.87-3,2.08-5.43,5.14-7.19,5.08-2.94,7.34-8.11,9-13.32V178.18C379.82,177.45,379.65,176.72,379.49,176ZM264.77,87.28V87a46.56,46.56,0,0,1,47-46.12H312a46.72,46.72,0,1,1-.4,93.44h-.21A46.91,46.91,0,0,1,264.77,87.28ZM143.16,55.38A47,47,0,0,1,189.93,8.8H190a46.83,46.83,0,0,1,.11,93.65h-.24A47.14,47.14,0,0,1,143.16,55.38ZM132,141.66c2.89-16.81,18.71-29.82,36.89-30.26,7.35-.17,14.68-.26,21.8-.26,6.44,0,12.89.07,19.16.22,21.9.5,38.57,16.75,39.57,38.62.32,6.9.24,13.65.16,20.79-.08,3.19-.08,6.4-.08,9.65l-2.85,1.81c-1.45-.67-2.89-1.33-4.31-2-4.81-2.25-9.36-4.37-13.9-6.65-2-1-2.12-4-2.12-4.62V152.45c0-3.24-1.69-5.24-4.32-5.24l-.17,0c-2.65,0-4.37,2.05-4.37,5.38v15L215,169.55a109.28,109.28,0,0,0-25.15-3,104.8,104.8,0,0,0-25,3.08l-2.47-2V153.18c0-1.78-.48-5.94-4.48-5.94-3.7.06-4.29,3.63-4.29,5.75v5.44c0,3.51,0,7.15-.09,10.73a6.12,6.12,0,0,1-2.88,4.8c-4.17,2.16-8.49,4.16-12.67,6.16l-4.32,2-1.9-.1.26.14a2.28,2.28,0,0,1-1.57-2.18c.1-3.83.1-7.76.1-11.56C130.52,159.59,130.51,150.47,132,141.66ZM21.59,87.34a47,47,0,0,1,47-46.45h.19a46.72,46.72,0,1,1-.36,93.44h-.16A46.89,46.89,0,0,1,21.59,87.34ZM83.14,272.59l-.71,1.5-.09.09a2.55,2.55,0,0,1-1.83.9c-3.71,0-7.41.08-11.12.08-4.28.08-8.55.08-12.82.08-6,0-10.87-.08-15.49-.25-8.14-.31-14.54-5.11-18-13.51l.13-1.8a2.15,2.15,0,0,0,.14-.26A2.51,2.51,0,0,1,24.74,258c11.75-4.28,16.13-10.48,16.13-22.86v-49.1a12.94,12.94,0,0,0-.4-3.82,3.73,3.73,0,0,0-3.8-3,5,5,0,0,0-.67,0,3.89,3.89,0,0,0-3.83,3.82,22.3,22.3,0,0,0-.08,2.71v49.25a27.82,27.82,0,0,1-.29,4.74,11.67,11.67,0,0,1-11.37,9.77C15,249.59,9.07,245.41,9,239.18c0-4.55-.11-9.1-.18-13.65-.25-15.37-.5-31.25.67-46.82,1.49-19.62,16.67-34.08,36.93-35.2,6.25-.33,12.63-.49,19.51-.49,8.17,0,16.92.23,26.76.71,10.43.54,19.75,5.89,27,15.54a10,10,0,0,1,1.82,5.58c.12,6.94.12,14.41,0,22.94a7.88,7.88,0,0,1-1.72,5c-2.54,2.75-5.11,5.33-8.11,8.33l-3.47,3.49-3.42-1.4V184.92c0-2.11-.59-5.7-4.38-5.7-2.73,0-4.38,2.09-4.38,5.59V219.3a11.72,11.72,0,0,1-1,5.22A108.79,108.79,0,0,0,83.14,272.59ZM190,371.2h-.38a98,98,0,1,1,.38-196h.38a98,98,0,0,1-.38,196ZM371.25,226.42c-.05,3.57-.05,7.13-.05,10.7,0,7.09-4.82,12.34-11.41,12.47h-.24c-6.67,0-11.58-5.27-11.58-12.53-.05-11.72-.05-23.64-.05-35.16V186.44c0-7.15-2.78-7.21-4.37-7.21-1.32,0-4.42,0-4.42,7.41V235c0,12.63,4.41,18.9,16.27,23.13l1.32,2c-.39,7.28-9.51,14.83-18.06,15-4.77.1-9.92.1-16.21.1H299.2l-2-1.79c-.19-1.77-.37-3.54-.55-5.3-.39-3.91-.76-7.61-1.27-11.37A103.51,103.51,0,0,0,285.76,226a17.69,17.69,0,0,1-1.69-7.22c-.08-9-.08-18.07-.08-26.88v-7.64c0-2.43-.78-3.88-2.33-4.31a7.52,7.52,0,0,0-1.89-.23,4.74,4.74,0,0,0-2.5.59,6.54,6.54,0,0,0-1.84,4.19c-.23,4.08-.15,8.27-.15,12.7v5.75l-3.41,1.43-3.32-3.27c-3-3-5.91-5.78-8.66-8.65a6.3,6.3,0,0,1-1.36-4.44c-.1-7.92-.14-15.67,0-23.3a10,10,0,0,1,1.94-5.56c7.48-9.92,17.6-15.36,29.28-15.73,6.8-.21,14.8-.43,22.85-.43s15.22.22,21.92.67C355.08,145,370.83,162,371.15,183.1,371.37,197.54,371.31,212.22,371.25,226.42Z"/><path d="M192.27,292.71a1.66,1.66,0,0,1-1.24-.63,2.11,2.11,0,0,1-.58-1.53q0-4.76,8.77-28,5.39-14.2,5.38-16.09a2.81,2.81,0,0,0-1.41-2.49,7.47,7.47,0,0,0-4.06-.92q-4.81,0-11.65,3t-15.13,10.24l3.65,2.22a82.94,82.94,0,0,1,9.42-6.71,8.62,8.62,0,0,1,3.78-1c1,0,1.5.44,1.5,1.31a7.5,7.5,0,0,1-.59,2.68q-12.45,31.82-12.45,40a5,5,0,0,0,1.7,4,6.9,6.9,0,0,0,4.61,1.44,22.18,22.18,0,0,0,8.55-2.35q5.23-2.36,16.6-10.8l-3.23-2.49Q194.93,292.71,192.27,292.71Z"/><path d="M212.86,216.54a6.49,6.49,0,0,0-4.22-1.34,8.45,8.45,0,0,0-5.74,2.06,6.33,6.33,0,0,0-2.41,5,4.42,4.42,0,0,0,1.66,3.6,6.31,6.31,0,0,0,4.15,1.38A8.45,8.45,0,0,0,212,225a6.54,6.54,0,0,0,2.53-5.07A4.23,4.23,0,0,0,212.86,216.54Z"/></svg>