<svg id="about" fill="currentColor" xmlns="http://www.w3.org/2000/svg" viewBox="0 0 384 384"><path d="M183.25,382l-.62-.17a17.65,17.65,0,0,0-2.22-.5C140.59,376,111.86,355,95,319.21c-3.11-6.61-5.13-13.69-7.27-21.19-1-3.46-2-7-3.15-10.6L82.67,286H59.1c-4.36,0-8.72,0-13.09,0-15.32-.07-26.7-8.95-30.44-23.75-.37-1.47-1-3.26-2.44-4C7.78,255.41,4.34,250.84,2,243.45v-63l0-.12a6.54,6.54,0,0,0,.56-1.64c3.3-19.17,13.82-32,32.15-39.31.54-.21,1.08-.44,1.65-.68l.83-.35.45-3.43c-13.33-10.3-21.35-24.77-22.6-40.73A55.3,55.3,0,0,1,70.53,34.08a55,55,0,0,1,36,13.28c11.93,10.31,18.42,23.33,19.3,38.7,1.11,19.43-6.44,35.73-22.44,48.46l.3,3.33,17.64,9.45,2.91-1.4a50.91,50.91,0,0,1,11.63-24.58c5.91-6.77,13.48-11.66,23.13-14.94l.66-3.41-1-.88c-.57-.49-1-.87-1.45-1.24a56,56,0,0,1-20.53-48.54A54.58,54.58,0,0,1,165.5,9c4.27-2.32,9.05-3.64,14.12-5,2.2-.61,4.48-1.23,6.7-1.95h11.37l.33.11a10.85,10.85,0,0,0,1.76.5C223.39,6.68,238.66,20,245.14,42s.63,41.79-17.51,58.18c-.61.55-1.26,1.08-2,1.69-.39.31-.79.65-1.23,1l.62,3.43c19.1,6.67,30.83,20,34.86,39.52l2.9,1.36,17.53-9.34.28-3.35c-13.24-10.22-21.19-24.65-22.39-40.61a56,56,0,0,1,15.28-42.85,54.79,54.79,0,0,1,40-17A55.36,55.36,0,0,1,369,93c-.95,16.47-9,31.35-22.71,41.9l.45,3.43,1.06.44c.73.31,1.42.6,2.12.88,15.42,6.1,25.63,17.33,30.33,33.38.48,1.63.85,3.28,1.24,5,.16.74.33,1.47.5,2.2v63.21c-1.66,5.21-3.92,10.38-9,13.32-3.06,1.76-4.27,4.15-5.14,7.19-3.18,11.05-10.4,18.13-21.47,21.06a45.24,45.24,0,0,1-10.82,1H335c-4.41,0-9.22.07-15.15.07H300.17l-1.95,1.57-.28,1.26c-.19.83-.36,1.58-.5,2.33-8.39,44.94-34.88,74.31-78.74,87.31A102,102,0,0,1,206.49,381c-1.86.31-3.79.62-5.68,1ZM192,177.25a98,98,0,0,0-.38,196H192a98,98,0,0,0,.38-196ZM38.67,181.31a3.73,3.73,0,0,1,3.8,3,13,13,0,0,1,.4,3.82q0,23.13,0,46.27v2.83c0,12.38-4.38,18.58-16.13,22.86a2.51,2.51,0,0,0-1.39,1.38,2.26,2.26,0,0,1-.14.26l-.13,1.8c3.46,8.4,9.86,13.2,18,13.51,4.62.17,9.54.25,15.49.25,4.27,0,8.54,0,12.82-.08,3.71,0,7.41-.08,11.12-.08a2.55,2.55,0,0,0,1.83-.9l.09-.09.71-1.5A108.78,108.78,0,0,1,97,226.57a11.79,11.79,0,0,0,1-5.22q0-9.67,0-19.34,0-7.57,0-15.15c0-3.5,1.65-5.59,4.38-5.59,3.79,0,4.37,3.59,4.38,5.7,0,3.91,0,7.83,0,12.12v6.17l3.42,1.4,3.47-3.49c3-3,5.57-5.58,8.11-8.33a7.87,7.87,0,0,0,1.72-5c.12-8.53.12-16,0-22.94a10,10,0,0,0-1.82-5.58c-7.2-9.65-16.52-15-26.95-15.54-9.84-.48-18.59-.71-26.76-.71-6.88,0-13.26.16-19.51.49C28.18,146.68,13,161.14,11.51,180.76c-1.17,15.57-.92,31.45-.67,46.82.07,4.55.14,9.1.18,13.65.05,6.23,5.94,10.41,11.41,10.41a11.66,11.66,0,0,0,11.37-9.77,28.32,28.32,0,0,0,.29-4.74c0-10.68,0-21.27,0-31.87V187.88a21.71,21.71,0,0,1,.08-2.71A3.9,3.9,0,0,1,38,181.35,5.12,5.12,0,0,1,38.67,181.31Zm243.1.43a7.41,7.41,0,0,1,1.89.23c1.55.43,2.33,1.88,2.33,4.31v7.64c0,8.81,0,17.91.08,26.88a17.64,17.64,0,0,0,1.69,7.22,103.55,103.55,0,0,1,9.62,30.71c.51,3.76.88,7.46,1.27,11.37.18,1.76.36,3.53.55,5.3l2,1.79,11.66,0,11.59,0c6.29,0,11.44,0,16.21-.1,8.55-.12,17.67-7.67,18.06-14.95l-1.32-2c-11.86-4.23-16.27-10.5-16.27-23.13V188.69c0-7.41,3.1-7.41,4.42-7.41,1.59,0,4.37.06,4.37,7.21q0,7.72,0,15.46c0,11.52,0,23.44.05,35.16,0,7.26,4.91,12.53,11.58,12.53h.24c6.59-.13,11.39-5.38,11.41-12.47,0-3.57,0-7.13.05-10.7.06-14.2.12-28.88-.1-43.32-.32-21.12-16.07-38.08-36.63-39.46-6.7-.45-13.87-.67-21.92-.67s-16.05.22-22.85.43c-11.68.37-21.8,5.81-29.28,15.73a10,10,0,0,0-1.94,5.56c-.14,7.63-.1,15.38,0,23.3a6.32,6.32,0,0,0,1.36,4.44c2.75,2.87,5.62,5.68,8.66,8.65l3.32,3.27,3.41-1.43c0-2,0-3.9,0-5.75,0-4.43-.08-8.62.15-12.7a6.52,6.52,0,0,1,1.84-4.19A4.73,4.73,0,0,1,281.77,181.74ZM224,149.26c2.63,0,4.29,2,4.32,5.24,0,2.47,0,4.93,0,7.4,0,3,0,6.06,0,9.11,0,.6.16,3.64,2.12,4.62,4.54,2.28,9.09,4.4,13.9,6.65q2.13,1,4.31,2l2.85-1.81c0-3.25,0-6.46.08-9.65.08-7.14.16-13.89-.16-20.79-1-21.87-17.67-38.12-39.57-38.62-6.27-.15-12.72-.22-19.16-.22-7.12,0-14.45.09-21.8.26-18.18.44-34,13.45-36.89,30.26-1.49,8.81-1.48,17.93-1.47,26.76,0,3.8,0,7.73-.1,11.56a2.27,2.27,0,0,0,1.57,2.18l-.26-.14,1.9.1q2.16-1,4.32-2c4.18-2,8.5-4,12.67-6.16a6.12,6.12,0,0,0,2.88-4.8c.12-3.58.11-7.22.09-10.73,0-1.82,0-3.63,0-5.44,0-2.12.59-5.69,4.29-5.75,4,0,4.46,4.16,4.48,5.94,0,3.25,0,6.5,0,9.86v4.59l2.47,2a104.61,104.61,0,0,1,25-3.08,109,109,0,0,1,25.15,3l2.47-1.94c0-1.65,0-3.25,0-4.83,0-3.51,0-6.82,0-10.15s1.72-5.35,4.37-5.38ZM313.77,42.94a46.56,46.56,0,0,0-47,46.39,46.91,46.91,0,0,0,46.62,47.05h.21a46.72,46.72,0,0,0,.4-93.44Zm-243.18,0a47,47,0,0,0-47,46.45,46.89,46.89,0,0,0,46.67,47h.16a46.72,46.72,0,0,0,.36-93.44ZM191.93,10.85a47,47,0,0,0-46.77,46.58,47.15,47.15,0,0,0,46.71,47.07h.24A46.83,46.83,0,0,0,192,10.85Z"/><path d="M178,260.56l-3.65-2.22q8.3-7.2,15.13-10.24t11.65-3a7.46,7.46,0,0,1,4.06.92,2.83,2.83,0,0,1,1.41,2.49q0,1.89-5.38,16.09-8.77,23.24-8.77,28a2.13,2.13,0,0,0,.58,1.53,1.67,1.67,0,0,0,1.24.63q2.66,0,13.62-8.12l3.23,2.49q-11.37,8.45-16.6,10.8a22.06,22.06,0,0,1-8.55,2.35,6.91,6.91,0,0,1-4.61-1.44,5,5,0,0,1-1.7-4q0-8.18,12.45-40a7.54,7.54,0,0,0,.59-2.68c0-.87-.5-1.31-1.5-1.31a8.71,8.71,0,0,0-3.78,1A82.73,82.73,0,0,0,178,260.56Zm32.63-43.31a6.49,6.49,0,0,1,4.23,1.34,4.23,4.23,0,0,1,1.66,3.43,6.57,6.57,0,0,1-2.53,5.07,8.45,8.45,0,0,1-5.69,2.2,6.28,6.28,0,0,1-4.15-1.38,4.42,4.42,0,0,1-1.66-3.6,6.34,6.34,0,0,1,2.41-5A8.47,8.47,0,0,1,210.67,217.25Z" fill="currentColor"/></svg>