<svg id="bull" xmlns="http://www.w3.org/2000/svg" viewBox="0 0 389.08 322.67"><path d="M3,54.3c3.13-6.26,5.58-13,9.53-18.66A70.15,70.15,0,0,1,34.93,15.38C48.06,7.67,62.5,3.63,77.21.46a23.17,23.17,0,0,1,9.31,0c1.78.37,3.67,2.19,4.7,3.85,2,3.29-.26,11.68-3.31,14.22C84.21,21.63,80.43,24.65,77,28A51.32,51.32,0,0,0,63.49,50.47c-1.31,4.5-1.84,9-.1,13.71,2.43,6.59,8.06,8.54,13.77,10.32,8.88,2.76,18.08,2.42,27.24,2.32,1.81,0,3.63.21,5.87.35,6.82-10.82,18.41-14.67,30.29-16.58a138.94,138.94,0,0,1,32.21-1.36c10.11.78,20.22,2.71,30.31,1.65,12.09-1.26,24.19-3,36.29-1.94,13.91,1.17,27.5,4,37.74,14.84,1,1.06,1.87,2.26,2.5,3,6.8,0,13.42.62,19.87-.17a94.53,94.53,0,0,0,19.83-4.73c7.15-2.52,9.52-11.26,8.27-17.17-2.83-13.44-10.11-24-20.87-32.42a72.91,72.91,0,0,1-6.13-5.37c-3.77-3.66-3-13.86,1.67-15.9,3-1.28,6.93-1.23,10.21-.59,13.46,2.62,26.67,6.28,38.84,12.75,13.09,7,23.79,16.7,31.12,29.74,2,3.54,3.09,7.56,4.6,11.36.9,11.48,4.14,16.35,0,42-1.63,4-3,8.15-4.94,12-6.3,12.8-16.3,22.1-28.73,28.7-6.77,3.59-14,6.36-21.05,9.52,6.24,2.44,12.84,4.83,19.28,7.58,7.21,3.07,13.48,6.34,13.17,18.42-.19,7.72-2.28,13.85-9,17.22a51.9,51.9,0,0,1-17,5.34,143.27,143.27,0,0,1-27.54.72c-7.17-.57-14.18-3.27-21.41-5.06-2.07,3.92-3.91,8.84-7,12.86a154.67,154.67,0,0,1-14.41,16c-3.62,3.59-6,7.58-6.64,12.59-.42,3.41-1.55,6.16-4.26,6.8.15,6.88.69,13.42.31,19.9-.24,4-3.86,6.3-7,8.58a7.5,7.5,0,0,0-2.8,3.44c-2,6.66-6.84,11-12,15.13,0,7.6,1.64,15.52-2.87,22.59-4.34,6.8-9.94,12-18.44,12.63-9.75.69-19.55,1.59-29.3,1.36-7-.17-14.31-.66-20.35-5.08-7.13-5.2-11.76-11.85-11.4-21.17.13-3.34,0-6.69,0-10.43-5.05-4.11-10.27-8.74-12.09-16-.23-.95-1.49-1.78-2.45-2.42-4.41-2.93-7.77-6.32-7.26-12.28.45-5.24.44-10.53.65-16.18-2.7-.71-4-3.32-4.38-6.77a19.93,19.93,0,0,0-6.62-12.59c-8.2-7.71-16.05-15.75-20-26.67a27.32,27.32,0,0,0-1.53-3,74.44,74.44,0,0,1-30.53,6.17c-11.46,0-22.61-.75-33.28-5.36-5.14-2.23-11.58-8.81-10.83-15.25.6-5.08-1-10.65,3.18-14.76a29.18,29.18,0,0,1,8.16-5.93c6.76-3,13.79-5.51,21-8.32-6.92-3.1-13.5-5.66-19.72-8.9-15.31-8-26.93-19.53-33-36C4.3,99.86,3.67,98.08,3,96.3-.82,81.66-1.19,67.59,3,54.3ZM255.54,230.49c.52-6.2,3.63-11.43,8.28-15.9,3-2.85,6.22-5.53,8.67-8.8a90.83,90.83,0,0,0,9.43-14.8c5.94-12.4,4.84-25.27.26-37.7A53.29,53.29,0,0,1,279,133.42c.21-12.24,0-24.49.1-36.74.1-10-4.38-17.76-12.53-22.93A57.29,57.29,0,0,0,236.15,65c-10.36-.08-20.71,1.64-31.09,2a214.46,214.46,0,0,1-35.59-1.9c-13.33-1.77-26.62.43-39.33,5.18-11.91,4.46-19.84,15.41-19.26,28.5.63,14.47.15,29,.12,43.48a13.9,13.9,0,0,1-.43,3.64c-1.84,6.83-4,13.59-5.6,20.48-2.34,10.36,0,20.27,5.35,29.05,3.85,6.36,9.1,12,14.26,17.42,5,5.24,9.41,10.53,10,19.06.67-1.11.85-1.43,1-1.74A65.38,65.38,0,0,1,152,211.67c2.18-1.66,4.33-1.47,5.86.25s2,4.15-.24,6.26a116.36,116.36,0,0,0-8.73,8.76c-6.75,7.85-11.64,16.52-10.83,27.39.28,3.72,1.83,6.38,5.61,7.86,1.65.64,3.68,2.49,4,4.08,2,10.6,12.47,17.05,21.73,16.89,17.36-.31,34.74-.08,52.11-.09,10.23,0,18.31-6.53,20.91-16.42a7.65,7.65,0,0,1,3.68-4.41c4.3-2.06,5.69-3.93,6-8.66.54-7.67-2-14.48-6.3-20.41-3.94-5.45-8.85-10.21-13.48-15.13-2-2.1-1.62-4.21-.19-6a3.82,3.82,0,0,1,5.53-.67,25.49,25.49,0,0,1,4.28,3.51C246.56,220.06,251.08,225.36,255.54,230.49ZM286.24,82.8c.61,5.91,1.6,11.62,1.7,17.35.25,13.62.07,27.25.09,40.87,0,6.28,1.09,7.19,7.13,6.33,1-.14,2,.07,3-.11,14.47-2.66,28.93-5.54,42.51-11.35,10.73-4.59,20.8-10.56,28.27-19.76,14.34-17.65,16.54-37.94,11.33-59.31C376,39.37,364.08,28.1,348.75,19.75c-12-6.54-25-10-38.07-13.27-2.09-.52-4.7-.93-5.92,1.71s.82,4.11,2.45,5.65c4.48,4.22,9.17,8.23,13.37,12.7,9,9.64,14,20.92,13.27,34.44a18.68,18.68,0,0,1-8.46,15.14c-7.16,5-15.47,6-23.81,6.61C296.26,83.1,290.9,82.8,286.24,82.8Zm-182.46.62c-8.46-.68-17.41-.93-26.2-2.25-7.24-1.08-14.12-3.77-18.35-10.5-4.67-7.43-3.74-15.48-1.65-23.23C60.68,36,67.5,26.75,76.65,19.21a77.39,77.39,0,0,0,7.68-7,4.69,4.69,0,0,0,.84-4c-.3-.9-2-1.72-3.2-1.84a15.12,15.12,0,0,0-4.71.67c-14.53,3.3-28.59,7.85-41.35,15.78C23.45,30.59,14.4,41.13,10,55.32,6.58,66.56,6.73,78,8.65,89.47a53.69,53.69,0,0,0,13.46,27.74c11.69,12.85,26.89,19.66,43.25,24,9.82,2.59,19.9,4.17,29.86,6.17,5.21,1,6.51,0,6.8-5.19,0-.75,0-1.5,0-2.25,0-13.37-.17-26.75.09-40.12C102.21,94.21,103.22,88.63,103.78,83.42Zm188.87,73.82c1.66,8.13,3.23,16.7,1,25.45-.13.53.92,1.74,1.67,2.07a66,66,0,0,0,31.45,5.44,71.06,71.06,0,0,0,23.87-5.46c4.25-1.83,7.39-4.78,7.87-9.8.57-5.91-.77-10.85-6.78-13.36q-11-4.58-22.06-9c-1.86-.74-3.95-2.08-5.68-1.77C313.56,152.74,303.19,155,292.65,157.24ZM97.5,157.1C87,155,76.93,153,66.83,151.06a6.4,6.4,0,0,0-3.37.16c-7.74,3-15.41,6.29-23.17,9.31-5.36,2.08-8.68,5.95-8.77,10.68-.13,7.61,2.06,11,8.25,13.68,11.81,5.18,24.21,6.45,36.79,5,6-.69,11.86-2.92,17.71-4.67.89-.27,2.16-1.92,2-2.66C94.43,173.9,95.51,165.42,97.5,157.1Zm62.55,134.33a20,20,0,0,0,14.47,23c12.31,3.44,24.82,3,37.41.95,12.3-2,20.33-13.23,18.11-24.11C206.68,292.55,183.42,292.41,160.05,291.43Z"/><path d="M154,168.31c-7.55-.43-12.48-4.37-15.79-10.2A28.84,28.84,0,0,1,135,136.46c.58-2.36,1.79-1.89,3.6-1.26,10,3.44,17,10.55,23.33,18.56.76,1,1.5,1.94,2.2,2.94,2.85,4.09,2.62,5.9-1.76,8.38C159.83,166.54,156.83,167.26,154,168.31Z"/><path d="M223.41,160.78c7.07-11.25,15.42-21.2,28.62-25.78.77-.26,2.65.47,2.82,1.07,2.82,10.25-.87,24.45-10.81,29.82A15.78,15.78,0,0,1,223.41,160.78Z"/><path d="M211.24,243.85c5,1.6,10,3,14.86,4.88,3.3,1.26,4.89,5.4,4.15,9.31-.54,2.88-4.17,5.94-7.46,6.27s-7.22-1.82-8.25-4.95c-1.62-4.9-3-9.88-4.47-14.82Z"/><path d="M180,244.8c-1.66,5.28-2.87,10.78-5.15,15.78-1.33,2.93-4.82,4.23-8.29,3.66a8.2,8.2,0,0,1-6.78-7.27c-.31-3.66.54-7,4.43-8.38,4.79-1.71,9.68-3.16,14.53-4.73Z"/></svg>