<svg id="cow" xmlns="http://www.w3.org/2000/svg" xmlns:xlink="http://www.w3.org/1999/xlink" viewBox="0 0 361.05 338.7"><defs><style>.cls-1{fill:none;}.cls-2{clip-path:url(#clip-path);}</style><clipPath id="clip-path"><rect class="cls-1" width="361.05" height="338.7"/></clipPath></defs><g class="cls-2"><path d="M180.61,338.7a2.31,2.31,0,0,1-.71-.09c-11.65-4.1-23.46-8.44-34.89-12.64l-3.92-1.44c-2-.72-2.45-1.41-2.59-3.53-.65-10.42-7.19-16.63-14.17-21.79-11.32-8.38-18-19.57-20.39-34.23-1.6-9.83-3.68-19.67-5.69-29.18q-.68-3.15-1.34-6.32c-3-14.6-6.24-29.41-9.33-43.73L86,178.19c-1.22-5.67-2.47-11.35-3.71-17l-.07-.33c-1.06-4.85-2.12-9.68-3.16-14.52-.11-.49-.25-1-.33-1.47-2.49-15.2,1.72-16.54-12.64-14.75-1.92.24-3.8.47-5.6.74s-3.59.55-5.3.7c-1,.09-2.07.13-3.09.13-8.3,0-16.58-3-25.31-9.14A73.85,73.85,0,0,1,7.48,103,81.64,81.64,0,0,1,29.2,81.81c3.32-2.24,11.39-4.26,11.91-8s-6.6-9-9.25-12.08A153.8,153.8,0,0,1,.45,1.78,20.09,20.09,0,0,1-.08-.6L.06-.68C.32-.5.58-.3.7-.2c.36.28.72.55,1.08.8C14,9.27,28.2,17.14,46.39,25.39,63.18,33,81.88,39.07,103.56,43.93c7.93,1.78,16,2.88,23.83,4l1.68.23a9.1,9.1,0,0,0,1.39.1,15,15,0,0,0,7.76-2.5A38.81,38.81,0,0,1,160,39.28q10.86,0,21.72,0,9.75,0,19.5,0a41.3,41.3,0,0,1,22,6.42A19.29,19.29,0,0,0,233,48.27a18.51,18.51,0,0,0,3-.24c23.23-3.78,43.43-8.91,61.76-15.69,20.2-7.46,37.36-15.88,52.48-25.73l3.38-2.18c2.47-1.59,5-3.22,7.46-4.89h0c0,.13-.06.28-.1.47-3.14,13.2-6.85,23.24-11.68,31.6-5.13,8.86-11.23,17.5-17.13,25.87l-.28.39c-1,1.47-3.26,3.82-4.29,5.29-3.05,4.34-6.59,6.1-5.89,9.84.66,3.5,7.24,6.81,10.22,8.8A81.3,81.3,0,0,1,353.78,103c-10,13.93-20.69,22.39-33.56,26.6a64.47,64.47,0,0,1-7.88,1.85l-2.25.44-4.32-.56c-3.77-.49-1.54-.25-10.39-1.25s-11.66-8-12,9.83c-1.39,7.9-3.12,15.88-4.78,23.6q-.69,3.18-1.36,6.35c-3.51,16.48-7,32.64-10.22,47.64q-1.67,7.69-3.34,15.37-2.62,12-5.19,24c-.48,2.27-.86,4.52-1.22,6.69a86.88,86.88,0,0,1-2,9.75c-3.33,11.38-10.37,20.78-20.92,27.95a26,26,0,0,0-11.61,19.78c-.17,2-.72,2.74-2.53,3.41l-.38.14c-12.57,4.62-25.56,9.41-38.44,13.94A2.58,2.58,0,0,1,180.61,338.7Zm-39.15-26.34c1.19,7.66,7.52,9.83,10.95,11,4.9,1.67,9.87,3.54,14.68,5.34,3.2,1.2,6.4,2.4,9.62,3.56A12.76,12.76,0,0,0,181,333a9.62,9.62,0,0,0,3.17-.51l.49-.16c6.38-2.2,13-4.46,19.43-7.08.81-.32,1.72-.63,2.69-1,5-1.69,13.31-4.5,14.28-15a6.47,6.47,0,0,0,0-1v-.78l-.4-1.19-2.86-3.83-1-.73c-12.07-3.58-24.31-9.47-36.22-9.47-12.15,0-24.39,6-36.53,9.7l-1.25,1.11-2.42,5.58,0,1.68c.32.66.64,1.22.92,1.71Zm37-102.14-.71,0-.18,0c-1.05.15-2.28.3-3.63.48-3.75.47-8.34,1.06-12.95,1.94-19.24,3.69-33.66,12.06-44.07,25.57a37.35,37.35,0,0,0-8.12,24.81c.48,10,4.87,19.17,13.41,28.15,2.74,2.88,12.91,8.66,14.66,7.88,11.45-5,24.32-12.4,41.44-12.92.93,0,1.86-.05,2.79-.05a96.13,96.13,0,0,1,16.65,1.47c8.22,1.45,17.59,7.84,27.11,10.64,2.59.77,14.33-6.39,16.7-9.63.59-.82,1.21-1.66,1.82-2.43,6.33-7.91,9.49-16.79,9.13-25.67-.5-12.43-6.32-23.22-17.28-32.07-14.5-11.7-32-17.32-56.59-18.23ZM180,44.43c-7.81,0-15.06,0-22.16.16-11,.17-19.44,4.77-25.15,13.67C123,73.46,113,88.88,103.34,103.79l-.12.17q-7.27,11.25-14.54,22.5c-2.52,3.91-6.34,9.83-5.26,16.73.94,6,2.32,11.91,3.66,17.62.63,2.68,1.27,5.43,1.86,8.14q1.92,8.94,3.82,17.89,2,9.34,4,18.7c.94,4.38,1.93,8.7,3,13.27,0,0,.79,3.43,1.38,6,.76,3.27,1.59,6.82,1.86,8.06l.5.94,4.73,5,3.08-.21c14.78-20.7,41.43-33.55,69.56-33.55,26.42,0,49.66,10.07,69.05,29.83l2.28.4,5.66-2.68,1.09-1.36c.25-1.1.75-3.52,1.28-6.09s1.07-5.17,1.32-6.22l0-.15c1-4.44,2-8.64,2.95-12.91q2.24-10.28,4.43-20.57L269,185c2.36-11,4.8-22.36,7.28-33.51,1.56-7,2.78-15.14-2.53-23.23L273,127c-3.14-4.77-6.69-10.18-10.05-15.39-2.4-3.74-8.06-12.5-8.06-12.5-8.44-13.08-17.17-26.6-25.63-40-6-9.54-14.74-14.45-25.87-14.58C195,44.48,187.34,44.43,180,44.43ZM307.44,79.54c-9.69,0-19.05,3.31-27.83,9.84-6.4,4.75-7.74,9.91-7.75,13.39,0,3.72,1.52,9.29,8.78,14.69a45.08,45.08,0,0,0,13.61,6.48,48.86,48.86,0,0,0,14.81,2.56,33.2,33.2,0,0,0,13.94-3c7.45-3.42,14.05-8.48,21.4-16.41l.53-1.38-.05-5.49-.55-1.37c-6.3-6.54-13.43-14-23.55-17.19A43.88,43.88,0,0,0,307.44,79.54Zm-253.53.12a49.09,49.09,0,0,0-8.72.79C32.61,82.73,24.19,91.39,16.76,99l-.56,1.47.22,5.79.67,1.42,3.16,2.76c2.08,1.8,4,3.51,5.89,5.25a38.47,38.47,0,0,0,26.91,10.75A49.28,49.28,0,0,0,81.43,117c5-3.61,7.89-8.32,8.09-13.26.13-3.37-.91-8.41-6.66-13.28A44.3,44.3,0,0,0,53.91,79.66ZM336.3,20.29c-26,14.21-55.45,24.4-90.17,31.16l-1.45,1.18-2.6,6.1.16,1.87,16.17,25.07,1.5.9,6.26.59,1.64-.62c.68-.72,1.3-1.42,1.89-2.08a22.54,22.54,0,0,1,2.52-2.59c9.77-7.76,21.84-11.79,38-12.69,3.08-.17,7.25-1.46,9.72-4.54,6.5-8.1,13.29-16.93,20.76-27a35,35,0,0,0,3.51-6.35c.37-.81.72-1.56,1.09-2.28l.19-1.28-.87-4.79L344,21.81l-.78-.71-1.11-.5-4.6-.55Zm-314.11.62L16.57,25.8,16,28a40.76,40.76,0,0,0,5.07,10.43c5.67,7.9,11.63,15.89,17.72,23.74,2.8,3.63,5.63,5.82,8.64,6.69a31.93,31.93,0,0,0,8.2,1c1.14,0,2.21.07,3.18.16,9.08.9,16.41,3.14,22.44,6.86,3.06,1.9,6,4.07,9.16,6.36,1.48,1.08,3,2.17,4.5,3.26l1.54.33,5.68-1.1,1.3-.88,15.62-24.3.16-1.87-2.62-6.09-1.46-1.18C81.57,45,51.9,35,24.42,20.65Z"/><path d="M156.33,119.6c-2.16.78-4.09,2-6.05,2.08a72.24,72.24,0,0,1-14.34-.79c-4.4-.82-5.76-3.92-4-8a54,54,0,0,1,5.27-8.73,2.91,2.91,0,0,1,2.76-.69C146.15,107.69,152.6,111.64,156.33,119.6Z"/><path d="M206.58,120c3.73-7.64,10-11.59,16.12-15.7.59-.4,2.48.13,3,.82a39.13,39.13,0,0,1,4.36,6.73c2.88,5.73,1.11,9.68-5.18,10.5a75.14,75.14,0,0,1-14.15,0C209.38,122.31,208.09,120.91,206.58,120Z"/><path d="M160.39,255.05c0,6.87-3.88,10.78-10.68,10.77-6.53,0-11.11-4.59-11.08-11.07a10.68,10.68,0,0,1,10.79-10.69C155.93,244.05,160.39,248.53,160.39,255.05Z"/><path d="M200.89,255c0-6.53,4.46-11,11-10.93a10.67,10.67,0,0,1,10.73,10.75c0,6.45-4.59,11-11.15,11C204.77,265.82,200.89,261.87,200.89,255Z"/></g></svg>