<svg id="Warstwa_1" data-name="Warstwa 1" xmlns="http://www.w3.org/2000/svg" xmlns:xlink="http://www.w3.org/1999/xlink" viewBox="0 0 23.98 16.46"><defs><style>.cls-1{fill:none;}.cls-2{clip-path:url(#clip-path);}.cls-3{fill:#900;}</style><clipPath id="clip-path"><rect class="cls-1" width="23.98" height="16.46"/></clipPath></defs><g class="cls-2"><path class="cls-3" d="M0,5a6.22,6.22,0,0,1,2.15-2.4,1.77,1.77,0,0,1,1.12-.23c.54,0,1.08.05,1.62.05a.83.83,0,0,0,.84-.63c.09-.28-.1-.4-.26-.54a.31.31,0,0,0-.47,0,1,1,0,0,1-1.07.11A1.7,1.7,0,0,1,3.05.6l1-.47A.78.78,0,0,1,5.15.35c.27.29.56.55.82.83A.55.55,0,0,1,6.09,2c-.06.13-.13.25-.2.37a1.34,1.34,0,0,1-1.34.75c-.43,0-.86,0-1.29,0A1.7,1.7,0,0,0,2,3.59a3.62,3.62,0,0,0-.84,1.2.54.54,0,0,0,.11.62,3,3,0,0,0,1.51.84.83.83,0,0,0,.44-.06C5.3,5.3,7.36,4.38,9.45,3.54c1.18-.48,2.41-.82,3.62-1.23a3,3,0,0,1,2.85.58,18.3,18.3,0,0,1,2.58,2.4c.36.38.73.77,1.07,1.17a4.08,4.08,0,0,0,1.21,1,1.74,1.74,0,0,1,.92,1.34h-.62a.58.58,0,0,0-.64.52,1.81,1.81,0,0,0,.06,1.08.58.58,0,0,0,.72.4l.64-.08a2,2,0,0,1-.28,1.07,14.06,14.06,0,0,1-2.26,2.49.67.67,0,0,1-1.08-.41,10.24,10.24,0,0,1,.07-1.56c0-.25.09-.5.14-.78a2.54,2.54,0,0,1-1.59,0c0,.11,0,.2,0,.28,0,1,0,2,0,3.06a.5.5,0,0,0,.14.31,1.48,1.48,0,0,1,.48.88H15.53a3,3,0,0,1,.05-.73,3.37,3.37,0,0,0-.07-1.61c-.13-.67-.28-1.33-.41-2,0-.15-.09-.17-.23-.19a.69.69,0,0,0-.73.38c-.76,1.16-1.54,2.29-2.32,3.44a3.84,3.84,0,0,1,1.06,1.1c-.61,0-1.19,0-1.76,0,0,0-.12-.07-.14-.12a1.74,1.74,0,0,1,0-1.43c.47-1,.87-2.05,1.3-3.08,0-.07.05-.14.09-.23a4.76,4.76,0,0,1-2.85-1.35A6.71,6.71,0,0,1,8,13.4C8.55,14,9.07,14.52,9.65,15a2.35,2.35,0,0,1,.82,1.41H9.05c-.29,0-.38-.1-.34-.4a3,3,0,0,1,.16-.55l-.62-.32L6,14.11,5.9,14c-.25-.17-.25-.34,0-.5l.23-.14L5,12.26a5.79,5.79,0,0,1-1.72,1.35.21.21,0,0,0-.08.18c.07.32.14.64.22,1a.6.6,0,0,0,.16.23,1.32,1.32,0,0,1,.39.84H2.07c.05-.28.09-.55.12-.82a1.07,1.07,0,0,0,0-.47c-.21-.63-.45-1.24-.68-1.87a4.25,4.25,0,0,1-.14-.51c-.06-.29.06-.46.36-.46a3.77,3.77,0,0,1,.58,0c.33,0,.4,0,.39-.34,0-.76-.06-1.52,0-2.29A10.37,10.37,0,0,1,2.8,7.87,6.54,6.54,0,0,1,0,5.28Z"/><path class="cls-3" d="M23.87,11.4a6.85,6.85,0,0,0-.61-.45,3.33,3.33,0,0,0-.93-.49,2.65,2.65,0,0,0-1,0c-.49.07-.6,0-.68-.48a.17.17,0,0,1,0-.07c0-.9.14-1,.94-.9a3,3,0,0,1,1.46.57A2.46,2.46,0,0,1,24,11.34Z"/></g></svg>