<svg id="Hamburger" xmlns="http://www.w3.org/2000/svg" viewBox="0 0 140.42 135.19"><defs><style>.cls-1{fill:#1d1d1b;}</style></defs><path class="cls-1" d="M47.93,25h80a12.88,12.88,0,0,0,8.84-3.66,12.51,12.51,0,0,0,0-17.68A13,13,0,0,0,127.91,0h-80A12.86,12.86,0,0,0,39.1,3.66a12.71,12.71,0,0,0-3.67,8.84,12.64,12.64,0,0,0,3.67,8.84A13,13,0,0,0,47.93,25Z"/><path class="cls-1" d="M12.51,82.89h115.4a12.88,12.88,0,0,0,8.84-3.66,12.51,12.51,0,0,0,0-17.68,13,13,0,0,0-8.84-3.66H12.51a12.93,12.93,0,0,0-8.84,3.66,12.51,12.51,0,0,0,0,17.68,13,13,0,0,0,8.84,3.66Z"/><path class="cls-1" d="M70.21,135.19h57.7a12.88,12.88,0,0,0,8.84-3.66,12.51,12.51,0,0,0,0-17.68,13,13,0,0,0-8.84-3.66H70.21a12.94,12.94,0,0,0-8.84,3.66,12.51,12.51,0,0,0,0,17.68,13,13,0,0,0,8.84,3.66Z"/></svg>