<svg id="Warstwa_1" data-name="Warstwa 1" xmlns="http://www.w3.org/2000/svg" viewBox="0 0 384 278.77"><path d="M188.72,276.77a24.25,24.25,0,0,1-4.93-.52,17.12,17.12,0,0,1-6.29-2.85c-3.35-2.37-6.65-5-9.83-7.5l-4-3.14-2.79.33a19.77,19.77,0,0,1-15.63,7.58c-9.23,0-20.63-6.42-23.85-20.5l-1.79-1.55c-20.71-1.67-27.6-8-30.72-28.1l-1.84-1.69c-19.18-1.33-26.86-8.67-29.35-28.05L55.6,189q-1,.06-2,.06a26.66,26.66,0,0,1-15.41-4.71,26.3,26.3,0,0,1-11.5-19.62,21.85,21.85,0,0,1,7.36-17.93c1.54-1.4,2.89-2.88,4.46-4.6.75-.82,1.54-1.69,2.4-2.61v-2.75c-1-1-1.86-2-2.77-3a82.52,82.52,0,0,0-6.41-6.56,149.16,149.16,0,0,0-13.43-10.56C9.65,110.74,4.31,103.62,2,95V87.22c2.7-11.11,9.48-20.31,16.2-28.79Q22.63,52.85,27,47.27C34.63,37.63,42.51,27.65,50.38,18A64.46,64.46,0,0,1,60,8.64c5.35-4.33,10.9-6.52,16.5-6.52A25.19,25.19,0,0,1,89.45,6a189.36,189.36,0,0,1,19,13.57l2.32,1.8A12.82,12.82,0,0,0,119,24.42c.34,0,.69,0,1.05-.05l16.46-1.3c8.46-.66,16.92-1.32,25.37-2,2.6-.21,5.24-.5,7.79-.78a149.49,149.49,0,0,1,15.81-1.15,49.83,49.83,0,0,1,13.34,1.64c5.83,1.6,11.64,3.83,17.27,6,2.82,1.08,5.73,2.19,8.63,3.23l.36.13a13.77,13.77,0,0,0,4.55,1l.58,0,4.76-.4c7.9-.66,16.07-1.34,24.05-2.61,3.69-.59,7.67-2.33,12.19-5.34,3.4-2.27,6.7-4.76,9.9-7.18,3.85-2.91,7.84-5.92,12-8.49C298.55,3.67,303.59,2,308.44,2c6,0,11.82,2.58,17.93,7.9a84.19,84.19,0,0,1,11,11.69c9.85,12.6,19.68,25.56,29.18,38.1l3.83,5A67.62,67.62,0,0,1,382,87.26V95.7c-2.86,9.56-9.46,16.18-18.49,23.15a142.58,142.58,0,0,0-15.46,13.9,107.74,107.74,0,0,1-32.63,22.89c-.77.36-1.54.74-2.35,1.14l-1.14.56-.78,2.93c7.2,10.5,6.93,20.8-.78,30.6-5.21,6.63-11.56,10-18.88,10a31.08,31.08,0,0,1-10.38-2l-2.66,1.65c-1,8.67-4.45,15.19-10.47,19.92a24.3,24.3,0,0,1-15.3,5.53,27.52,27.52,0,0,1-6.2-.74l-2.39,1.47c-4.8,19.08-12.44,26.86-26.37,26.86-1.1,0-2.26-.05-3.45-.14l-2,1.13c-.69,1.43-1.3,2.89-1.89,4.29a40.93,40.93,0,0,1-4.18,8.17C201.54,273.5,195.64,276.77,188.72,276.77ZM123.4,185.65a28,28,0,0,1,22,10.16,26.59,26.59,0,0,1,5.17,22.42l1.4,2.34c8.61,2.47,15.14,8.14,17.94,15.53a21.68,21.68,0,0,1-2.26,19.74l.45,2.65q1.88,1.47,3.67,2.92c3.06,2.45,5.95,4.76,9.08,6.9a14.1,14.1,0,0,0,7.36,2.26h.27a17.65,17.65,0,0,0,16.58-18.3,8.59,8.59,0,0,0-2.93-5.31c-2.86-2.41-5.84-4.73-8.72-7-1.52-1.18-3-2.36-4.54-3.55s-2.19-2.2-2.29-3.15a2.65,2.65,0,0,1,.76-2,2.49,2.49,0,0,1,2-1.08,5.75,5.75,0,0,1,3.21,1.43c2.33,1.8,4.64,3.63,6.95,5.45,2.85,2.24,5.78,4.55,8.71,6.79a17,17,0,0,0,10.36,3.6c5.46,0,10.77-2.77,14.55-7.61,6.71-8.57,5.77-19-2.29-25.37-3-2.36-6-4.69-9-7l-5.24-4.11c-.55-.43-1.1-.85-1.62-1.31a4.53,4.53,0,0,1-1.69-2.93,2.29,2.29,0,0,1,.67-1.73,3,3,0,0,1,2.19-1.19,4.21,4.21,0,0,1,2.45,1.06l9.13,7.14c5,3.87,10.06,7.87,15.12,11.77a16.84,16.84,0,0,0,10.34,3.62c5.48,0,10.79-2.78,14.56-7.62,6.54-8.41,5.69-19-2-25.13-3.14-2.51-6.37-5-9.49-7.45L251,175.5c-.92-.72-1.84-1.44-2.77-2.15-2.38-1.84-4.84-3.74-7.15-5.72-2-1.75-1.22-3.23-.43-4.18a2.66,2.66,0,0,1,2.06-1.14,4.1,4.1,0,0,1,2.09.7,14.86,14.86,0,0,1,1.44,1.05l.46.37,8.94,7q12.94,10.14,25.92,20.24a14.61,14.61,0,0,0,5.25,2.92,15.1,15.1,0,0,0,3.57.42c7.29,0,14.68-4.95,18-12,3.82-8.22,1.9-15.9-5.42-21.65q-8.94-7-17.86-14c-15.61-12.24-31.74-24.91-47.66-37.31C229,103.41,222.34,98.49,216,94.07a23.77,23.77,0,0,0-16.64-4.39c-3.18.37-6.4.8-9.51,1.22s-6.54.88-9.81,1.25c-2.43.28-4.86.66-7.21,1a84.5,84.5,0,0,1-13.06,1.39,34.21,34.21,0,0,1-6-.49c-12.57-2.21-20.6-7.5-25.27-16.65-2.72-5.34-3-10.86-.79-15.14,2.12-4.09,6.33-6.77,11.83-7.55,11.81-1.68,23-5.55,33.45-9.37,7.74-2.83,15.47-5.58,23.66-8.48l11.27-4L207.73,29c-1.74-.39-3.4-.86-5-1.31a36.79,36.79,0,0,0-9.91-1.86h-.18c-9.13.09-18.39.68-27.34,1.25l-8.23.51c-4.45.26-8.9.55-13.35.84-9.21.61-18.74,1.23-28.1,1.55-3.42.11-6,.84-8.57,4.1C96.64,47.53,86,61.1,75.67,74.23L65,87.83,38.2,122l.06,2.54,6.54,7.59,2.78.25c4.87-3.95,10-5.95,15.13-5.95a25.07,25.07,0,0,1,12,3.36c9.17,5,13.91,13.21,14.09,24.33l1.82,2c19.87,1.77,25.72,7.25,29.79,28l2,1.61Zm25.29,41a8.14,8.14,0,0,0-6.46,3c-1.77,2-3.7,4-5.57,6-2.16,2.23-4.4,4.53-6.44,7a10.54,10.54,0,0,0-2.24,7.5c1,7.68,9,14.42,17.1,14.43h0c3.85,0,8.85-2.83,13.39-7.56s7.13-9.83,7-13.66c0-.22,0-.33,0-.45-.57-7.51-7.31-14.85-14.72-16A13.53,13.53,0,0,0,148.69,226.69Zm-23.42-34.61A14,14,0,0,0,114,196.87c-5.31,5.51-9.76,10.15-14.21,14.95-6.61,7.12-5.88,17.57,1.74,24.84A19.51,19.51,0,0,0,115,242.35a16.11,16.11,0,0,0,11.54-4.84c3.45-3.5,6.88-7.12,10.19-10.63,1.44-1.52,2.87-3,4.31-4.55a15,15,0,0,0,4.13-12.61,20.47,20.47,0,0,0-19.62-17.64ZM94,162.23c-4.55,0-8.64,2.09-12.89,6.56-1.48,1.57-3,3.12-4.46,4.67-2.71,2.82-5.51,5.73-8.2,8.66-6.54,7.13-5.77,17.57,1.83,24.85a19.53,19.53,0,0,0,13.39,5.75h0a16.16,16.16,0,0,0,11.54-4.88l.79-.79c4.61-4.66,9.38-9.48,13.69-14.59a24.84,24.84,0,0,0,3.53-6.36c.41-.95.8-1.85,1.23-2.71l.2-1.1a22.57,22.57,0,0,0-13.58-18.53A18.7,18.7,0,0,0,94,162.23ZM62.82,132.55a17.19,17.19,0,0,0-2.78.23,15.53,15.53,0,0,0-7.81,3.92c-4.53,4.35-9.18,9.23-15.08,15.83a16.62,16.62,0,0,0-.87,21.7,22.82,22.82,0,0,0,16.79,9.47l1-.17c.75-.33,1.57-.62,2.43-.93a16,16,0,0,0,5.91-3.08,203.54,203.54,0,0,0,16.13-17A17.51,17.51,0,0,0,82.38,153a18.64,18.64,0,0,0-5.18-13.9A19.84,19.84,0,0,0,62.82,132.55Zm137-48.92c9.62,0,18.42,3.37,26.91,10.31.59.49,1.21,1,1.82,1.42.39.3.79.59,1.18.9l14.43,11.3c18.19,14.26,37,29,55.44,43.57a8.32,8.32,0,0,0,5.14,2.12h0a7.69,7.69,0,0,0,3.72-1.05c2.2-1.19,4.49-2.33,6.7-3.44,3.18-1.59,6.47-3.23,9.61-5.07a78.72,78.72,0,0,0,21.39-18.29l0-2.49-71-92.51L273,29.7c-1.83.53-3.59,1.08-5.3,1.61-3.68,1.14-7.15,2.22-10.64,2.95a90.48,90.48,0,0,1-15.61,2,176.51,176.51,0,0,0-63,13.37l-1.82.75c-10.15,4.22-20.64,8.58-31.82,9.53a35,35,0,0,0-6.24,1.15A8.61,8.61,0,0,0,133,65.32a7.34,7.34,0,0,0-.17,6.08,25.86,25.86,0,0,0,6.23,9.69c5.5,5,12.36,7.4,21,7.4a57.74,57.74,0,0,0,7-.46l1.67-.2C176.1,87,183.65,86,191,84.55A44.34,44.34,0,0,1,199.8,83.63ZM308.31,8.11A19.46,19.46,0,0,0,298.4,11c-4.35,2.55-8.39,5.39-12.67,8.39-1.87,1.32-3.76,2.65-5.71,4l-.46,2.87,71.06,92.59,2.87.32c1.69-1.43,3.37-2.8,5-4.16,3.76-3.09,7.31-6,10.72-9.22,7.12-6.72,8.61-15.32,4.2-24.2a86.65,86.65,0,0,0-8.13-13.4c-12-16.07-22.71-30.1-32.75-42.89a86.35,86.35,0,0,0-12-12.31A18.65,18.65,0,0,0,308.31,8.11ZM76.64,8.19a19,19,0,0,0-11.72,4.32,57,57,0,0,0-9.62,9C43.39,36.35,30.88,52.27,17.05,70.14a58.91,58.91,0,0,0-6.54,11c-4.32,9.22-2.83,17.72,4.29,24.59a135.86,135.86,0,0,0,10.81,9.07c1.65,1.29,3.3,2.58,4.94,3.92l2.84-.32,71.94-91.73-.44-2.88c-1.93-1.33-3.83-2.68-5.71-4-4.21-3-8.56-6.09-13.07-8.78A18.34,18.34,0,0,0,76.64,8.19Z"/></svg>