<svg id="heifer" xmlns="http://www.w3.org/2000/svg" xmlns:xlink="http://www.w3.org/1999/xlink" viewBox="0 0 359.79 364.08"><defs><style>.cls-1{fill:none;}.cls-2{clip-path:url(#clip-path);}</style><clipPath id="clip-path"><rect class="cls-1" width="359.79" height="364.08"/></clipPath></defs><g class="cls-2"><path d="M116,362.63A47.51,47.51,0,0,1,92.8,337.07c-.23-.62-.48-1.24-.72-1.85-1.3-3.32-2.54-6.45-2.73-9.8-.4-6.71-.5-13.8,3-20.36A34.3,34.3,0,0,0,94,301.17c.4-1,.77-2,1.22-2.94,2.47-5.1,5.14-8.51,8.4-10.74,6.42-4.37,5.8-10.89,4.78-15.41a125.56,125.56,0,0,0-6.23-18.52c-.82-2.08-1.67-4.23-2.46-6.35-2-5.43-4.52-10.69-6.94-15.78-.63-1.33-1.26-2.67-1.88-4-.76-1.62-1.5-3.25-2.24-4.88-1.7-3.75-3.46-7.63-5.42-11.37a157,157,0,0,1-7-16.22c-.42-1.11-.85-2.23-1.29-3.34a97.7,97.7,0,0,1-5.69-19.38c-.81-4.9-6.35-7.93-11-7.93h-.7c-9.86,0-21.26-.4-31.72-5.15-11.65-5.29-19.48-13.4-24-24.77a49.7,49.7,0,0,1-1.68-5.58c-.36-1.68-.43-6.56,1.27-9.22,1.31-2,4.47-2.17,4.47-2.17,12,0,67.65.06,68,.06a4.55,4.55,0,0,0,3.34-1.26,42.43,42.43,0,0,0,7.5-7.29c.61-.71,1.22-1.42,1.84-2.1,4.8-5.3,3-12,1-17.21a71.79,71.79,0,0,1-3.4-13.54c-.19-1-.38-2.07-.58-3.1a44.08,44.08,0,0,1-.56-7.78c0-1.21,0-2.41-.08-3.6-.16-3.16.75-6.45,1.72-9.93.3-1.12.61-2.22.88-3.33A72.15,72.15,0,0,1,103,15.64c4.66-5,11.74-11.81,19.48-14.18A28,28,0,0,1,130.2,0c2.76,0,3.29,1,3.47,1.3.76,1.36,1.4,6.29-8.84,22.57-10.1,16.07-8.44,36.27-2.62,48.25,2.19,4.49,5.64,6.67,10.56,6.67a24.67,24.67,0,0,0,6.5-1C149,75.1,159.36,72.48,170,72.37h19.1c8.55.28,24.65,4,27.36,4.75a23.28,23.28,0,0,0,11.78.24c4.2-1,7.52-4.8,8.89-10.09a52.67,52.67,0,0,0,1.47-21.88C237.27,37,233.91,30,230.66,23.21l-.06-.11c-1.62-3.4-5.95-12.43-5.41-17.78.26-2.48,3.68-2.75,5.14-2.75a24.85,24.85,0,0,1,12.25,3.9,72,72,0,0,1,17.51,17.1c7.24,10.23,11.82,22.17,14,36.5,1.26,8.29-.72,16.44-3,24l-.46,1.38a42.27,42.27,0,0,0-2.39,11.06c-.27,6.31,3.24,9.87,6.32,12.27a20.73,20.73,0,0,1,3,3.14,21.68,21.68,0,0,0,4.24,4.21,4.27,4.27,0,0,0,3.18,1.23h67.14s4.53.35,6.38,3a9.54,9.54,0,0,1,1.27,5.53,70.45,70.45,0,0,1-3,9.19c-4.13,9.52-9.41,16-16.62,20.28-8.78,5.25-17.42,8-26.41,8.34l-4.55.22c-2.9.15-5.88.3-8.81.33A10.31,10.31,0,0,0,290.2,172a208.28,208.28,0,0,1-12.72,35c-2.56,5.62-5.17,11.23-7.77,16.83-2,4.28-4,8.55-5.93,12.83a214.52,214.52,0,0,0-12.2,32.54,26.85,26.85,0,0,0-.54,8.48c0,1,.09,1.9.09,2.85,0,2.42,1.64,3.78,2.83,4.77a8,8,0,0,1,.82.72,55.41,55.41,0,0,1,14.43,25.61c2.16,8,1.24,16.22-2.83,25-2.08,4.49-4,8.74-7.05,12.45-8.22,10.11-12.58,13.18-24.65,13.76C229.76,363.07,122,365.65,116,362.63Zm12.64-79.23c-13.25.71-27.27,11.54-31.32,24.06a42.66,42.66,0,0,0-2.09,13.64c.13,7.84,3.37,14.51,6.54,20s7.86,8.51,12.42,11.47l1.44.95c6.11,4,13.08,4,19.83,4h47.32c2.85-.12,5.92-.17,9.75-.17,3,0,6.06,0,9.22.06,3.32,0,6.73.08,10.2.08,7.34,0,13.32-.19,18.77-.58a33.92,33.92,0,0,0,21.2-9.44c10.74-10.09,14.52-22.77,10.92-36.71a35.13,35.13,0,0,0-9.7-17.21A40.72,40.72,0,0,0,225,282.65S140.44,282.76,128.59,283.4Zm50.35-203c-2.18,0-4.41,0-6.64.11A139.69,139.69,0,0,0,127.52,89C106.8,96.83,92.45,106.65,82.36,120c-1.16,1.59-9.6,18.83-10,22.62a83.23,83.23,0,0,0,.68,21.67c1.8,11,6,21.39,9.8,30.62,1.59,3.89,3.51,7.68,5.37,11.36,1,2,2.1,4.15,3.14,6.25,1.67,3.51,3.31,7,4.95,10.59,2.1,4.55,4.3,9.24,6.51,13.85.24.49,1.46,3.52,3.29,8.11,1.7,4.21,4,10.07,7.11,17.66A20.84,20.84,0,0,0,129,276.18c8.61,1.92,99.56,1.34,102.27,1.33a15,15,0,0,0,8.54-2.27c4-2.67,5.09-6.72,6.28-11.41.14-.53.28-1.08.43-1.63,1.39-5.12,3.3-9.79,6.76-18.26l.78-1.88c1.1-2.72,2.45-5.42,3.76-8,1.38-2.78,2.82-5.65,4-8.61,1.34-3.33,3-6.62,4.64-9.79.9-1.75,1.82-3.57,2.69-5.39,1.18-2.47,2.32-5,3.46-7.46,1.52-3.33,3.09-6.77,4.74-10.09a70.74,70.74,0,0,0,3.54-9.27c.72-2.22,1.47-4.51,2.37-6.66a39,39,0,0,0,1.95-7c.22-1,.44-2.09.7-3.11a53,53,0,0,0,1.22-12.1c0-1.32,0-2.66.11-4a37.72,37.72,0,0,0-2.69-16.82c-6.56-15.63-18.73-28-37.22-37.73C227.43,85.5,205.07,80.37,178.94,80.37Zm119,49.3c2.26,7.64,3.73,14.28,3.55,21.85l1.75,2a55.07,55.07,0,0,0,6.92.44c19,0,34.28-9.8,38.07-24.39l-1.94-2.5H299.81ZM59.73,127.13H13L11,129.54c2.88,13.67,18.33,24.38,35.17,24.38h0a40.63,40.63,0,0,0,9.88-1.22l1.53-1.56c.45-2.42.76-4.85,1.07-7.19.65-4.95,1.26-9.62,3-14.1ZM121.51,14.39a51.17,51.17,0,0,0-19.82,17c-9.82,14.76-7.91,37-6.86,42.16v.1c.54,2.09.84,3.47,1.09,4.58a22.73,22.73,0,0,0,1.72,5.45l2.78.93,12.89-7.07L114.2,75a51.23,51.23,0,0,1-4.34-17.15A53.76,53.76,0,0,1,113.66,35c1.44-3.7,4.89-9.12,7.65-13.48,1-1.58,1.94-3,2.69-4.3Zm116.34,6.15a6,6,0,0,0,.73,1.61c5.47,8.16,8.85,16.06,10.35,24.16,2.1,11.31,3,16-4.19,28.55l1,2.85a77.15,77.15,0,0,1,7,3.37c1.08.56,2.15,1.12,3.23,1.64a7.16,7.16,0,0,0,2.9.78h0a2.81,2.81,0,0,0,3-2.5c4.15-13.62,1.31-26.36.37-30.56l-.05-.2A57.39,57.39,0,0,0,250.58,26.8c-2.79-3.48-5.63-7-9.9-9.19l-.14-.13h-.08l.07.05-2.68,2.76-.15-.24a1.11,1.11,0,0,0,.1.29h0a.43.43,0,0,0,0,.16Z"/><path d="M134.4,196.39c-6.39,0-11.27-4.83-11.11-10.95s5.28-11.9,10.55-11.46c6.87.58,12.07,4.07,12,11.32C145.71,191.91,141.12,196.39,134.4,196.39Z"/><path d="M224.51,196.39c-5.49.44-11-3.67-11.13-10.91-.13-7.54,4.73-11,10.38-11.49,6.32-.55,12.12,5.19,12.06,11.23C235.76,191.87,231.21,196.39,224.51,196.39Z"/><path d="M201.91,331.39A10.78,10.78,0,0,1,190.79,321v-.52c.08-7.16,5.41-11.49,10.39-11.57,7-.12,12.23,5.14,12.16,11.09C213.27,326.85,208.79,331.39,201.91,331.39Z"/><path d="M157,331.39c-6.62,0-11-4.5-11.15-11.2s6-11.45,10.7-11.33c7.16.17,12.06,5.66,11.84,11.45C168.1,327,163.68,331.39,157,331.39Z"/></g></svg>