<svg id="Warstwa_1" data-name="Warstwa 1" xmlns="http://www.w3.org/2000/svg" viewBox="0 0 384 384"><path d="M227.13,377c-2.26-1.08-3.4-2.77-3.37-7.21.14-18.8.12-37.9.1-56.38q0-10.61,0-21.2v-4.36l-7-7H167.15l-7,7v4.72q0,10.55,0,21.08c0,18.39,0,37.41.09,56.13,0,4.46-1.1,6.15-3.35,7.22H79.1a7.71,7.71,0,0,0-1.91-.5c-14.24-1.79-29.25-15.1-29-36.25.28-25.42.22-51.25.16-76.22q0-16.24-.06-32.49v-4.21l-7-7h-3c-.56,0-1.08,0-1.6,0h-.86c-14,0-25.12-8.89-28.27-22.65A13.75,13.75,0,0,0,7,195.87v-8.39c2-8.86,7.94-15.34,15.49-22.86C70,117.4,117.86,69.49,164.89,22.23,172,15.07,178.64,9,187.48,7h9c9.35,2.1,16.37,8.75,22.76,15.4,6.63,6.89,13.5,13.72,20.15,20.33,3.85,3.82,7.83,7.78,11.7,11.69l.82.93a146,146,0,0,0,14.71,14.46q.16-8.81.32-17.62V48.24c0-3.32,0-6.65,0-10,.05-7.84.1-15.94-.13-24-.13-4.4.94-6.15,3.13-7.31H320.7c2,1.35,3.12,3.39,3.09,8.13-.14,21.65-.14,43.65-.14,64.93q0,20.18,0,40.36a14.73,14.73,0,0,0,4.67,11.18c4.5,4.45,9.05,9,13.44,13.44,6.7,6.74,13.63,13.71,20.63,20.43,7.62,7.33,13,14,14.63,22.63v7.45c-.19.67-.38,1.35-.55,2-3.23,12.61-10.85,19.93-23.3,22.4a38,38,0,0,1-6.57.42c-1.34,0-2.73,0-4.2.1l-6.66,7v37c0,25.31,0,51.47,0,77.21,0,15.81-9.43,29-24,33.65-1.46.47-3,.88-4.56,1.31l-1.37.37ZM187.33,80.62l-.79.69c-.59.52-1.2,1.06-1.83,1.68l-9.58,9.58C137.69,130,99,168.72,61,206.88A15,15,0,0,0,56.86,217c-.1,39.09-.09,78.83-.08,117.26v6.5c0,16.85,10.88,27.75,27.71,27.77h56.25c1,0,2-.06,3-.13l1.31-.08,6.63-7V278.61c0-5.55,1-6.52,6.46-6.53h67.48c5.8,0,6.74.93,6.75,6.61V361.5l7,7h59.1c18.28,0,28.77-10.43,28.77-28.61v-27c0-31.08,0-63.22.07-94.83a16.16,16.16,0,0,0-5-12.17c-31.86-31.77-64.21-64.12-95.5-95.4l-27-27c-.72-.72-1.43-1.35-2.12-2l-.91-.83ZM192,65.34c.51,0,2,.33,5.09,3.4L332.31,204l.66.66a34.74,34.74,0,0,0,3.18,3,19.84,19.84,0,0,0,31.39-9.7c3.22-10.4-2.37-17.55-6.85-22Q306.91,122.17,253.21,68.42L208,23.17c-5.22-5.22-10.45-7.76-16-7.76s-10.72,2.53-15.92,7.73L23.38,175.85l-.51.51a30.86,30.86,0,0,0-3.21,3.53c-4.87,6.51-5.56,14-1.95,21.1a19.34,19.34,0,0,0,17.56,10.88h.54c7.08,0,11.9-3.92,15.31-7.33q56.76-56.84,113.59-113.62L186.84,68.8C190,65.68,191.49,65.34,192,65.34Zm83.48-33.67c0,14,0,28.45.05,42.61a11.11,11.11,0,0,0,3.09,7.51c6.31,6.42,12.61,12.74,19.29,19.44l5,5.06,11.94,12.14q0-51.37,0-102.75H275.4Z"/></svg>